<mxfile host="app.diagrams.net" modified="2024-03-22T10:28:35.114Z" agent="Mozilla/5.0 (Windows NT 10.0; Win64; x64) AppleWebKit/537.36 (KHTML, like Gecko) Chrome/122.0.0.0 Safari/537.36" etag="KdtxXWihvajn3yCAN5xF" version="24.0.7" type="github">
  <diagram id="C5RBs43oDa-KdzZeNtuy" name="Page-1">
    <mxGraphModel dx="2022" dy="615" grid="1" gridSize="10" guides="1" tooltips="1" connect="1" arrows="1" fold="1" page="1" pageScale="1" pageWidth="827" pageHeight="1169" math="0" shadow="0">
      <root>
        <mxCell id="WIyWlLk6GJQsqaUBKTNV-0" />
        <mxCell id="WIyWlLk6GJQsqaUBKTNV-1" parent="WIyWlLk6GJQsqaUBKTNV-0" />
        <mxCell id="5hUvm3GJERcykWQlXBgC-10" value="" style="rounded=0;whiteSpace=wrap;html=1;fillColor=#FFCE9F;" vertex="1" parent="WIyWlLk6GJQsqaUBKTNV-1">
          <mxGeometry x="45" y="370" width="340" height="200" as="geometry" />
        </mxCell>
        <mxCell id="5hUvm3GJERcykWQlXBgC-8" value="" style="rounded=0;whiteSpace=wrap;html=1;fillColor=#FFF4C3;" vertex="1" parent="WIyWlLk6GJQsqaUBKTNV-1">
          <mxGeometry x="45" y="180" width="340" height="170" as="geometry" />
        </mxCell>
        <mxCell id="5hUvm3GJERcykWQlXBgC-1" style="edgeStyle=orthogonalEdgeStyle;rounded=0;orthogonalLoop=1;jettySize=auto;html=1;exitX=0.5;exitY=1;exitDx=0;exitDy=0;entryX=0.5;entryY=0;entryDx=0;entryDy=0;" edge="1" parent="WIyWlLk6GJQsqaUBKTNV-1" source="WIyWlLk6GJQsqaUBKTNV-3" target="5hUvm3GJERcykWQlXBgC-0">
          <mxGeometry relative="1" as="geometry" />
        </mxCell>
        <mxCell id="WIyWlLk6GJQsqaUBKTNV-3" value="servlet容器启动" style="rounded=1;whiteSpace=wrap;html=1;fontSize=12;glass=0;strokeWidth=1;shadow=0;" parent="WIyWlLk6GJQsqaUBKTNV-1" vertex="1">
          <mxGeometry x="155" y="40" width="120" height="40" as="geometry" />
        </mxCell>
        <mxCell id="WIyWlLk6GJQsqaUBKTNV-11" value="Repair Lamp" style="rounded=1;whiteSpace=wrap;html=1;fontSize=12;glass=0;strokeWidth=1;shadow=0;" parent="WIyWlLk6GJQsqaUBKTNV-1" vertex="1">
          <mxGeometry x="150" y="810" width="120" height="40" as="geometry" />
        </mxCell>
        <mxCell id="5hUvm3GJERcykWQlXBgC-15" style="edgeStyle=orthogonalEdgeStyle;rounded=0;orthogonalLoop=1;jettySize=auto;html=1;exitX=0.5;exitY=1;exitDx=0;exitDy=0;" edge="1" parent="WIyWlLk6GJQsqaUBKTNV-1" source="5hUvm3GJERcykWQlXBgC-0" target="5hUvm3GJERcykWQlXBgC-4">
          <mxGeometry relative="1" as="geometry" />
        </mxCell>
        <mxCell id="5hUvm3GJERcykWQlXBgC-0" value="HttpServlet调用init()方法" style="rounded=0;whiteSpace=wrap;html=1;" vertex="1" parent="WIyWlLk6GJQsqaUBKTNV-1">
          <mxGeometry x="150" y="110" width="130" height="60" as="geometry" />
        </mxCell>
        <mxCell id="5hUvm3GJERcykWQlXBgC-17" style="edgeStyle=orthogonalEdgeStyle;rounded=0;orthogonalLoop=1;jettySize=auto;html=1;exitX=0.5;exitY=1;exitDx=0;exitDy=0;entryX=0.5;entryY=0;entryDx=0;entryDy=0;" edge="1" parent="WIyWlLk6GJQsqaUBKTNV-1" source="5hUvm3GJERcykWQlXBgC-2" target="5hUvm3GJERcykWQlXBgC-6">
          <mxGeometry relative="1" as="geometry" />
        </mxCell>
        <mxCell id="5hUvm3GJERcykWQlXBgC-2" value="initServletBean()&lt;br&gt;提供给子类初始化的扩展点" style="whiteSpace=wrap;html=1;rounded=0;" vertex="1" parent="WIyWlLk6GJQsqaUBKTNV-1">
          <mxGeometry x="157.5" y="280" width="115" height="50" as="geometry" />
        </mxCell>
        <mxCell id="5hUvm3GJERcykWQlXBgC-16" style="edgeStyle=orthogonalEdgeStyle;rounded=0;orthogonalLoop=1;jettySize=auto;html=1;exitX=0.5;exitY=1;exitDx=0;exitDy=0;entryX=0.5;entryY=0;entryDx=0;entryDy=0;" edge="1" parent="WIyWlLk6GJQsqaUBKTNV-1" source="5hUvm3GJERcykWQlXBgC-4" target="5hUvm3GJERcykWQlXBgC-2">
          <mxGeometry relative="1" as="geometry" />
        </mxCell>
        <mxCell id="5hUvm3GJERcykWQlXBgC-4" value="读取web.xml配置内容，将其装配到Servlet中" style="whiteSpace=wrap;html=1;rounded=0;" vertex="1" parent="WIyWlLk6GJQsqaUBKTNV-1">
          <mxGeometry x="157.5" y="200" width="115" height="50" as="geometry" />
        </mxCell>
        <mxCell id="5hUvm3GJERcykWQlXBgC-13" style="edgeStyle=orthogonalEdgeStyle;rounded=0;orthogonalLoop=1;jettySize=auto;html=1;exitX=0.5;exitY=1;exitDx=0;exitDy=0;entryX=0.5;entryY=0;entryDx=0;entryDy=0;" edge="1" parent="WIyWlLk6GJQsqaUBKTNV-1" source="5hUvm3GJERcykWQlXBgC-6" target="5hUvm3GJERcykWQlXBgC-12">
          <mxGeometry relative="1" as="geometry" />
        </mxCell>
        <mxCell id="5hUvm3GJERcykWQlXBgC-6" value="initWebApplicationContext()&lt;div&gt;初始化web上下文&lt;/div&gt;" style="whiteSpace=wrap;html=1;rounded=0;" vertex="1" parent="WIyWlLk6GJQsqaUBKTNV-1">
          <mxGeometry x="132.5" y="390" width="165" height="70" as="geometry" />
        </mxCell>
        <mxCell id="5hUvm3GJERcykWQlXBgC-9" value="HttpServletBean#init()" style="text;html=1;align=center;verticalAlign=middle;resizable=0;points=[];autosize=1;strokeColor=none;fillColor=none;" vertex="1" parent="WIyWlLk6GJQsqaUBKTNV-1">
          <mxGeometry x="-60" y="190" width="140" height="30" as="geometry" />
        </mxCell>
        <mxCell id="5hUvm3GJERcykWQlXBgC-11" value="FrameworkServlet#&lt;span style=&quot;text-wrap: wrap;&quot;&gt;initServletBean()&lt;/span&gt;" style="text;html=1;align=center;verticalAlign=middle;resizable=0;points=[];autosize=1;strokeColor=none;fillColor=none;" vertex="1" parent="WIyWlLk6GJQsqaUBKTNV-1">
          <mxGeometry x="-100" y="390" width="220" height="30" as="geometry" />
        </mxCell>
        <mxCell id="5hUvm3GJERcykWQlXBgC-12" value="initFrameworkServlet();&lt;div&gt;提供给子类的&lt;/div&gt;" style="whiteSpace=wrap;html=1;rounded=0;" vertex="1" parent="WIyWlLk6GJQsqaUBKTNV-1">
          <mxGeometry x="147.5" y="480" width="135" height="60" as="geometry" />
        </mxCell>
      </root>
    </mxGraphModel>
  </diagram>
</mxfile>
